<svg width="41" height="40" viewBox="0 0 41 40" fill="none" xmlns="http://www.w3.org/2000/svg">
<path d="M20.2512 0C9.21144 0 0.224365 8.75468 0.224365 19.5167C0.224365 30.2745 9.21144 39.03 20.2512 39.03C31.2938 39.03 40.2781 30.2745 40.2781 19.5167C40.2779 8.75468 31.2936 0 20.2512 0ZM20.2512 37.1496C10.2732 37.1496 2.15392 29.24 2.15392 19.5161C2.15392 9.79216 10.273 1.87963 20.2512 1.87963C30.2294 1.87963 38.3485 9.79197 38.3485 19.5161C38.3485 29.2402 30.2292 37.1496 20.2512 37.1496Z" fill="white"/>
<path d="M21.211 18.1456C18.5547 17.0465 17.6242 16.275 17.6242 14.7598C17.6242 13.5434 18.312 12.1741 20.6614 12.1741C22.6133 12.1741 23.8614 12.8605 24.5024 13.2149L25.2637 11.2539C24.3482 10.7499 23.1009 10.2719 21.3023 10.2164V7.32812H19.38V10.3005C16.6036 10.7497 14.8079 12.6197 14.8079 15.0845C14.8079 17.6702 16.7302 19.065 19.8367 20.2553C22.0961 21.1467 23.0906 22.1581 23.087 23.7908C23.0906 25.488 21.8187 26.7044 19.6565 26.7044C17.9474 26.7044 16.3593 26.1119 15.2947 25.4298L14.5636 27.4169C15.6282 28.1588 17.4302 28.695 19.1955 28.7274V31.6965H21.1178V28.6073C24.2572 28.1321 25.9362 25.9311 25.9362 23.5566C25.9371 20.9133 24.3512 19.3971 21.211 18.1456Z" fill="white"/>
</svg>
