<svg width="58" height="27" viewBox="0 0 58 27" fill="none" xmlns="http://www.w3.org/2000/svg">
<path d="M20.3829 16.9218C17.6834 16.9218 15.4871 19.0612 15.4871 21.6909C15.4871 24.3206 17.6834 26.46 20.3829 26.46C23.082 26.46 25.2783 24.3206 25.2783 21.6909C25.2779 19.0612 23.082 16.9218 20.3829 16.9218ZM20.3829 23.6155C19.2935 23.6155 18.4071 22.7523 18.4071 21.6909C18.4071 20.6299 19.2935 19.7663 20.3829 19.7663C21.4719 19.7663 22.3583 20.6295 22.3583 21.6909C22.3583 22.7519 21.4719 23.6155 20.3829 23.6155Z" fill="white"/>
<path d="M47.7821 16.9218C45.083 16.9218 42.8868 19.0612 42.8868 21.6909C42.8868 24.3206 45.0826 26.46 47.7821 26.46C50.4813 26.46 52.6775 24.3206 52.6775 21.6909C52.6779 19.0612 50.4817 16.9218 47.7821 16.9218ZM47.7821 23.6155C46.6931 23.6155 45.8068 22.7523 45.8068 21.6909C45.8068 20.6299 46.6927 19.7663 47.7821 19.7663C48.8716 19.7663 49.7575 20.6295 49.7575 21.6909C49.7579 22.7519 48.8716 23.6155 47.7821 23.6155Z" fill="white"/>
<path d="M36.2731 0H15.6353C12.8181 0 10.5256 2.23321 10.5256 4.97802V21.504C10.5256 22.2896 11.1793 22.9261 11.9856 22.9261C12.7918 22.9261 13.4456 22.2896 13.4456 21.504V4.97802C13.4456 3.8019 14.4278 2.84453 15.6353 2.84453H36.2735C37.481 2.84453 38.4633 3.8019 38.4633 4.97802V17.9481C38.4633 19.1242 37.481 20.0816 36.2735 20.0816H27.7745C26.9682 20.0816 26.3145 20.7181 26.3145 21.5036C26.3145 22.2892 26.9682 22.9257 27.7745 22.9257H36.2731C39.0903 22.9257 41.3829 20.6925 41.3829 17.9477V4.97802C41.3829 2.23321 39.0907 0 36.2731 0Z" fill="white"/>
<path d="M57.0033 14.5584L53.5683 7.67862C53.324 7.18949 52.8143 6.87891 52.2556 6.87891H44.4309C43.6247 6.87891 42.9709 7.51545 42.9709 8.30097C42.9709 9.0865 43.6247 9.72304 44.4309 9.72304H51.3425L54.231 15.5083V21.5028C54.231 22.2883 54.8847 22.9249 55.691 22.9249C56.4972 22.9249 57.151 22.2883 57.151 21.5028V15.1807C57.1506 14.9655 57.1 14.7523 57.0033 14.5584Z" fill="white"/>
<path d="M7.03458 13.9531H0.951474C0.54855 13.9531 0.22168 14.272 0.22168 14.6646C0.22168 15.0571 0.54855 15.376 0.951474 15.376H7.03458C7.43791 15.376 7.76437 15.0571 7.76437 14.6646C7.76437 14.272 7.4375 13.9531 7.03458 13.9531Z" fill="white"/>
<path d="M7.03482 17.582H3.74994C3.34661 17.582 3.02014 17.9009 3.02014 18.2935C3.02014 18.686 3.34701 19.0049 3.74994 19.0049H7.03482C7.43815 19.0049 7.76461 18.686 7.76461 18.2935C7.76461 17.9009 7.43774 17.582 7.03482 17.582Z" fill="white"/>
<path d="M34.7097 15.6151C35.113 15.6151 35.4395 15.2963 35.4395 14.9037V8.32505C35.4395 6.2014 34.2732 5.125 31.9726 5.125H23.9448C23.5415 5.125 23.215 5.44347 23.215 5.83643C23.215 6.22899 23.5419 6.54786 23.9448 6.54786H31.9726C33.6514 6.54786 33.9799 7.19937 33.9799 8.32544V14.9041C33.9799 15.2963 34.3068 15.6151 34.7097 15.6151Z" fill="white"/>
</svg>
