<svg width="44" height="33" viewBox="0 0 44 33" fill="none" xmlns="http://www.w3.org/2000/svg">
<path d="M38.5352 0C38.3814 0 38.2295 0.00996979 38.0792 0.0225334C38.0418 0.0124825 38.005 0 37.9648 0H15.9516C12.9923 0 10.5851 2.34533 10.5851 5.22847V27.2358H1.19387C0.946536 27.2358 0.746704 27.4302 0.746704 27.6715C0.746704 30.554 3.15392 32.9 6.11313 32.9C6.22319 32.9 6.32053 32.8565 6.39857 32.7927C6.47635 32.8565 6.57369 32.9 6.68375 32.9H28.6969C31.6561 32.9 34.0633 30.5541 34.0633 27.6715C34.0633 27.6324 34.0501 27.5966 34.0407 27.5608C34.0501 27.5243 34.0633 27.4893 34.0633 27.4498V26.0337V5.66455H43.4545C43.7016 5.66455 43.9017 5.46969 43.9017 5.22887C43.9016 2.34533 41.4944 0 38.5352 0ZM28.6968 32.0286C26.231 32.0286 24.2248 30.0747 24.2248 27.6715C24.2248 27.4302 24.0248 27.2358 23.7776 27.2358H11.4795V5.22847C11.4795 2.82583 13.4857 0.871425 15.9516 0.871425H35.5751C34.1269 1.80859 33.1688 3.41072 33.1688 5.22847V26.0332V27.4493C33.1688 27.4884 33.1818 27.5243 33.1914 27.56C33.1818 27.5966 33.1688 27.6316 33.1688 27.6705C33.1688 30.0737 31.1626 32.0286 28.6968 32.0286Z" fill="white"/>
<path d="M29.2556 23.418H16.734C16.4866 23.418 16.2868 23.6127 16.2868 23.8537C16.2868 24.0945 16.4866 24.2892 16.734 24.2892H29.2556C29.5027 24.2892 29.7027 24.0945 29.7027 23.8537C29.7027 23.6127 29.5027 23.418 29.2556 23.418Z" fill="white"/>
<path d="M29.2556 19.0625H16.734C16.4866 19.0625 16.2868 19.2573 16.2868 19.4983C16.2868 19.7391 16.4866 19.9338 16.734 19.9338H29.2556C29.5027 19.9338 29.7027 19.7391 29.7027 19.4983C29.7027 19.2573 29.5027 19.0625 29.2556 19.0625Z" fill="white"/>
<path d="M29.2556 14.7031H16.734C16.4866 14.7031 16.2868 14.8978 16.2868 15.1388C16.2868 15.3796 16.4866 15.5745 16.734 15.5745H29.2556C29.5027 15.5745 29.7027 15.3796 29.7027 15.1388C29.7027 14.8978 29.5027 14.7031 29.2556 14.7031Z" fill="white"/>
<path d="M29.2556 10.3477H16.734C16.4866 10.3477 16.2868 10.5423 16.2868 10.7833C16.2868 11.0242 16.4866 11.2191 16.734 11.2191H29.2556C29.5027 11.2191 29.7027 11.0242 29.7027 10.7833C29.7027 10.5422 29.5027 10.3477 29.2556 10.3477Z" fill="white"/>
<path d="M29.2556 5.99219H16.734C16.4866 5.99219 16.2868 6.18688 16.2868 6.42786C16.2868 6.66867 16.4866 6.86353 16.734 6.86353H29.2556C29.5027 6.86353 29.7027 6.66859 29.7027 6.42786C29.7027 6.18688 29.5027 5.99219 29.2556 5.99219Z" fill="white"/>
</svg>
